<svg xmlns="http://www.w3.org/2000/svg" viewBox="0 0 151.13 168.43"><defs><style>.cls-1{fill:#008cd2;}.cls-2{fill:#9d2f21;}.cls-3{fill:#003479;}</style></defs><title>Asset 1</title><g id="Layer_2" data-name="Layer 2"><g id="Layer_3" data-name="Layer 3"><path class="cls-1" d="M106.2,144a7.22,7.22,0,0,1-5-1.93A3.65,3.65,0,0,0,96,142a7.36,7.36,0,0,1-9.94,0,3.54,3.54,0,0,0-2.6-1.1,3.58,3.58,0,0,0-2.61,1.1,7.36,7.36,0,0,1-9.94,0,3.62,3.62,0,0,0-5.2,0,7.36,7.36,0,0,1-9.94,0,3.62,3.62,0,0,0-5.2,0,7.38,7.38,0,0,1-9.95,0,3.54,3.54,0,0,0-2.6-1.1,1.9,1.9,0,0,1,0-3.79,7.27,7.27,0,0,1,5,1.93,3.63,3.63,0,0,0,5.21,0,7.36,7.36,0,0,1,9.94,0,3.62,3.62,0,0,0,5.2,0,7.36,7.36,0,0,1,9.94,0,3.63,3.63,0,0,0,5.21,0,7.36,7.36,0,0,1,9.94,0,3.63,3.63,0,0,0,5.21,0,7.36,7.36,0,0,1,9.94,0,3.65,3.65,0,0,0,5.22,0,7.27,7.27,0,0,1,5-1.93,1.9,1.9,0,0,1,0,3.79,3.58,3.58,0,0,0-2.61,1.1A7.24,7.24,0,0,1,106.2,144Z"/><path class="cls-1" d="M92.25,154.19A8,8,0,0,1,87,152.31a4.56,4.56,0,0,0-6,0,8.27,8.27,0,0,1-10.5,0,4.57,4.57,0,0,0-6,0,8.27,8.27,0,0,1-10.5,0,4.34,4.34,0,0,0-3-1.14,1.9,1.9,0,1,1,0-3.79,8,8,0,0,1,5.25,1.88,4.53,4.53,0,0,0,6,0,8.27,8.27,0,0,1,10.5,0,4.54,4.54,0,0,0,6,0,8.27,8.27,0,0,1,10.5,0,4.54,4.54,0,0,0,6,0,8,8,0,0,1,5.25-1.88,1.9,1.9,0,0,1,0,3.79,4.37,4.37,0,0,0-3,1.14A8,8,0,0,1,92.25,154.19Z"/><path class="cls-2" d="M45.61,119.6a1.89,1.89,0,0,1-1.9-1.89V93.35a1.9,1.9,0,1,1,3.79,0v24.36A1.89,1.89,0,0,1,45.61,119.6Z"/><path class="cls-2" d="M45.61,95.11l-.34,0a1.9,1.9,0,0,1-1.53-2.2L47.53,71.8a1.9,1.9,0,0,1,1.86-1.56h14.9a1.9,1.9,0,0,1,0,3.79H51L47.47,93.55A1.89,1.89,0,0,1,45.61,95.11Z"/><path class="cls-2" d="M85.12,55.85A1.89,1.89,0,0,1,83.23,54V37.29H69.09V54a1.9,1.9,0,0,1-3.79,0V35.4a1.89,1.89,0,0,1,1.89-1.89H85.12A1.88,1.88,0,0,1,87,35.4V54A1.89,1.89,0,0,1,85.12,55.85Z"/><path class="cls-2" d="M106.71,119.6a1.89,1.89,0,0,1-1.9-1.89V93.35a1.9,1.9,0,1,1,3.79,0v24.36A1.89,1.89,0,0,1,106.71,119.6Z"/><path class="cls-2" d="M110.87,95.24H41.44a1.9,1.9,0,0,1,0-3.79h69.43a1.9,1.9,0,1,1,0,3.79Z"/><path class="cls-2" d="M106.71,95.11a1.9,1.9,0,0,1-1.87-1.56L101.34,74H88a1.9,1.9,0,0,1,0-3.79h14.9a1.91,1.91,0,0,1,1.87,1.56l3.78,21.09a1.89,1.89,0,0,1-1.53,2.2Z"/><path class="cls-2" d="M88,83.75a1.89,1.89,0,0,1-1.89-1.89V57.12H66.18V81.86a1.89,1.89,0,1,1-3.78,0V55.22a1.89,1.89,0,0,1,1.89-1.89H88a1.9,1.9,0,0,1,1.9,1.89V81.86A1.9,1.9,0,0,1,88,83.75Z"/><path class="cls-2" d="M118.2,130.84a1.9,1.9,0,0,1-1.9-1.89V122c-4-.81-16.15-2.91-36.73-2.91H72.75C52.16,119.1,40,121.2,36,122V129a1.9,1.9,0,0,1-3.79,0v-8.46a1.91,1.91,0,0,1,1.42-1.84c.53-.13,13.16-3.34,39.11-3.34h6.82c26,0,38.58,3.21,39.1,3.34a1.9,1.9,0,0,1,1.42,1.84V129A1.89,1.89,0,0,1,118.2,130.84Z"/><path class="cls-2" d="M99.13,89.43h-5.3a1.89,1.89,0,0,1-1.89-1.89V77.82a1.9,1.9,0,0,1,1.89-1.9h5.3a1.9,1.9,0,0,1,1.9,1.9v9.72A1.89,1.89,0,0,1,99.13,89.43Zm-3.4-3.79h1.51V79.71H95.73Z"/><path class="cls-2" d="M78.81,89.43h-5.3a1.89,1.89,0,0,1-1.9-1.89V77.82a1.9,1.9,0,0,1,1.9-1.9h5.3a1.9,1.9,0,0,1,1.89,1.9v9.72A1.89,1.89,0,0,1,78.81,89.43ZM75.4,85.64h1.51V79.71H75.4Z"/><path class="cls-2" d="M58.73,89.43h-5.3a1.89,1.89,0,0,1-1.89-1.89V77.82a1.9,1.9,0,0,1,1.89-1.9h5.3a1.9,1.9,0,0,1,1.9,1.9v9.72A1.89,1.89,0,0,1,58.73,89.43Zm-3.4-3.79h1.51V79.71H55.33Z"/><path class="cls-2" d="M99.13,112.16h-5.3a1.9,1.9,0,0,1-1.89-1.9v-9.72a1.89,1.89,0,0,1,1.89-1.89h5.3a1.9,1.9,0,0,1,1.9,1.89v9.72A1.9,1.9,0,0,1,99.13,112.16Zm-3.4-3.79h1.51v-5.93H95.73Z"/><path class="cls-2" d="M78.81,112.16h-5.3a1.9,1.9,0,0,1-1.9-1.9v-9.72a1.9,1.9,0,0,1,1.9-1.89h5.3a1.89,1.89,0,0,1,1.89,1.89v9.72A1.9,1.9,0,0,1,78.81,112.16Zm-3.41-3.79h1.51v-5.93H75.4Z"/><path class="cls-2" d="M58.73,112.16h-5.3a1.9,1.9,0,0,1-1.89-1.9v-9.72a1.89,1.89,0,0,1,1.89-1.89h5.3a1.9,1.9,0,0,1,1.9,1.89v9.72A1.9,1.9,0,0,1,58.73,112.16Zm-3.4-3.79h1.51v-5.93H55.33Z"/><path class="cls-2" d="M93,57.12H59.37a1.9,1.9,0,1,1,0-3.79H93a1.9,1.9,0,0,1,0,3.79Z"/><path class="cls-2" d="M85.12,37.29H67.19a1.89,1.89,0,0,1-1.75-1.18A1.91,1.91,0,0,1,65.88,34l9-8.58a1.9,1.9,0,0,1,2.62,0l9,8.58a1.89,1.89,0,0,1-1.31,3.26ZM71.91,33.51h8.5l-4.25-4.07Z"/><path class="cls-2" d="M76.16,28.71a1.9,1.9,0,0,1-1.9-1.89V21a1.9,1.9,0,1,1,3.79,0v5.81A1.89,1.89,0,0,1,76.16,28.71Z"/><path class="cls-2" d="M62,56.86A1.9,1.9,0,0,1,60.12,55V42.38a1.9,1.9,0,0,1,1.9-1.9H90.3a1.9,1.9,0,0,1,1.89,1.9V54.71a1.9,1.9,0,1,1-3.79,0V44.27H63.91V55A1.89,1.89,0,0,1,62,56.86Z"/><path class="cls-2" d="M83.73,56.73a1.88,1.88,0,0,1-1.18-.41l-15.15-12a1.9,1.9,0,0,1,2.36-3L84.91,53.36a1.89,1.89,0,0,1-1.18,3.37Z"/><path class="cls-2" d="M68.58,56.73a1.89,1.89,0,0,1-1.18-3.37L82.55,41.3a1.9,1.9,0,0,1,2.36,3l-15.15,12A1.86,1.86,0,0,1,68.58,56.73Z"/><path class="cls-2" d="M97.33,37.29a1.89,1.89,0,0,1-.6-3.68l14.33-4.8a1.89,1.89,0,1,1,1.2,3.59L97.93,37.2A2.08,2.08,0,0,1,97.33,37.29Z"/><path class="cls-2" d="M111.66,56.23a1.8,1.8,0,0,1-.6-.1L96.73,51.34a1.9,1.9,0,0,1,1.21-3.6l14.32,4.8a1.89,1.89,0,0,1-.6,3.69Z"/><path class="cls-2" d="M106.8,44.68h-8a1.9,1.9,0,0,1,0-3.79h8a1.9,1.9,0,1,1,0,3.79Z"/><path class="cls-2" d="M54.85,37.29a2.13,2.13,0,0,1-.6-.09L39.92,32.4a1.89,1.89,0,1,1,1.21-3.59l14.32,4.8a1.89,1.89,0,0,1-.6,3.68Z"/><path class="cls-2" d="M40.52,56.23a1.89,1.89,0,0,1-.6-3.69l14.33-4.8a1.9,1.9,0,1,1,1.2,3.6L41.13,56.13A1.86,1.86,0,0,1,40.52,56.23Z"/><path class="cls-2" d="M53.34,44.68h-8a1.9,1.9,0,1,1,0-3.79h8a1.9,1.9,0,0,1,0,3.79Z"/><path class="cls-3" d="M18.4,80.67a.25.25,0,0,1-.27-.27V72a10.87,10.87,0,0,1,.14-1.74c0-.17,0-.25-.2-.25a1.12,1.12,0,0,0-.33.1l-1.36.52a.24.24,0,0,1-.35-.14l-.85-2.29a.23.23,0,0,1,.14-.35l5.41-2.08a.31.31,0,0,1,.37.06l.15.13a.35.35,0,0,1,.16.33V80.4a.25.25,0,0,1-.27.27Z"/><path class="cls-3" d="M29.71,69.51a6.27,6.27,0,0,1-1.21,1.31c-.25.21-.1.41.19.31a6.48,6.48,0,0,1,1.81-.25,4.59,4.59,0,0,1,4.42,4.93c0,3.2-2.07,5.09-5.59,5.09s-5.65-2-5.63-5.26c0-2.45.64-4.14,3.16-7.55l1.48-2a.36.36,0,0,1,.33-.17h3.24c.23,0,.31.15.17.34Zm1.89,6.3a2,2,0,0,0-2.27-2.1,2.15,2.15,0,1,0,0,4.28A2,2,0,0,0,31.6,75.81Z"/><path class="cls-1" d="M116.33,133a7.73,7.73,0,0,1-5.17-1.9,4.25,4.25,0,0,0-5.77,0,8,8,0,0,1-10.33,0,4.25,4.25,0,0,0-5.77,0,8,8,0,0,1-10.32,0,4.25,4.25,0,0,0-5.77,0,8,8,0,0,1-10.32,0,4.25,4.25,0,0,0-5.77,0,8,8,0,0,1-10.33,0,4.25,4.25,0,0,0-5.77,0,8,8,0,0,1-10.32,0A4.13,4.13,0,0,0,27.81,130a1.9,1.9,0,1,1,0-3.79,7.7,7.7,0,0,1,5.16,1.9,4.24,4.24,0,0,0,5.76,0,8,8,0,0,1,10.33,0,4.25,4.25,0,0,0,5.77,0,8,8,0,0,1,10.33,0,4.24,4.24,0,0,0,5.76,0,8,8,0,0,1,10.32,0,4.13,4.13,0,0,0,2.89,1.13A4.09,4.09,0,0,0,87,128.07a8,8,0,0,1,10.33,0,4.13,4.13,0,0,0,2.89,1.13,4.09,4.09,0,0,0,2.88-1.13,8,8,0,0,1,10.33,0,4.23,4.23,0,0,0,5.78,0,7.75,7.75,0,0,1,5.16-1.89,1.9,1.9,0,1,1,0,3.79,4.13,4.13,0,0,0-2.89,1.13A7.68,7.68,0,0,1,116.33,133Z"/><path class="cls-3" d="M117.17,66.24a8.78,8.78,0,0,1,3-.53c3.2,0,5.09,1.53,5.09,4.13a2.83,2.83,0,0,1-1.69,2.83c-.22.12-.22.25,0,.35a3.65,3.65,0,0,1,2.19,3.52c0,2.74-2.08,4.36-5.57,4.36a10.83,10.83,0,0,1-3.39-.58l-1.4-.48c-.18,0-.22-.17-.16-.33l.85-2.23a.22.22,0,0,1,.33-.16l1.33.43a8.15,8.15,0,0,0,2.44.44c1.41,0,2.26-.71,2.26-1.85s-.77-1.75-2.06-1.75h-1.22a.25.25,0,0,1-.27-.27V71.79a.25.25,0,0,1,.27-.27h1.2c1,0,1.58-.53,1.58-1.31,0-1-.68-1.58-1.78-1.58a6.39,6.39,0,0,0-2.15.4l-1.16.4c-.17.06-.27,0-.33-.17L115.78,67a.24.24,0,0,1,.16-.33Z"/><path class="cls-3" d="M132.68,77.1a6,6,0,0,1,1.2-1.31c.25-.21.11-.42-.18-.32a6.59,6.59,0,0,1-1.81.25,4.59,4.59,0,0,1-4.43-4.92c0-3.2,2.08-5.09,5.59-5.09s5.66,2,5.64,5.25c0,2.46-.65,4.14-3.17,7.55l-1.47,2a.35.35,0,0,1-.33.17h-3.24c-.23,0-.32-.14-.17-.33Zm-1.9-6.3a2.3,2.3,0,0,0,4.58,0,2.29,2.29,0,0,0-4.58,0Z"/><path class="cls-3" d="M96.5,6.93a35.65,35.65,0,0,1,12.18,2.16,83.12,83.12,0,0,0,27.86,4.74,60.92,60.92,0,0,0,7.66-.41V76.54c0,56-68.63,85-68.63,85s-68.64-28.95-68.64-85V13.42a60.92,60.92,0,0,0,7.66.41A83.08,83.08,0,0,0,42.45,9.09,35.65,35.65,0,0,1,54.63,6.93a37.59,37.59,0,0,1,20.94,6.49A37.53,37.53,0,0,1,96.5,6.93M96.5,0A45.33,45.33,0,0,0,75.56,5.32,45.24,45.24,0,0,0,54.63,0,42.62,42.62,0,0,0,40.09,2.58,76.23,76.23,0,0,1,14.59,6.9a57.94,57.94,0,0,1-6.72-.34A5.7,5.7,0,0,0,7,6.49,7,7,0,0,0,0,13.42V76.54c0,25,12.73,48.83,36.82,68.82a160.3,160.3,0,0,0,36.05,22.53,7,7,0,0,0,5.39,0,160.06,160.06,0,0,0,36.05-22.53c24.09-20,36.82-43.79,36.82-68.82V13.42a6.94,6.94,0,0,0-6.93-6.93,6.2,6.2,0,0,0-1,.07,56.91,56.91,0,0,1-6.7.34A76.23,76.23,0,0,1,111,2.58,42.57,42.57,0,0,0,96.5,0Z"/></g></g></svg>